<svg width="20" height="16" viewBox="0 0 20 16" fill="none" xmlns="http://www.w3.org/2000/svg">
<path fill-rule="evenodd" clip-rule="evenodd" d="M1.76699 7.11466C6.89165 4.94624 10.3089 3.51669 12.0187 2.826C16.9006 0.853939 17.9151 0.511371 18.5762 0.50006C18.7217 0.497572 19.0468 0.532573 19.2574 0.698553C19.4353 0.838703 19.4842 1.02803 19.5076 1.1609C19.531 1.29378 19.5602 1.59648 19.537 1.833C19.2725 4.5326 18.1277 11.0838 17.5454 14.1074C17.299 15.3868 16.8137 15.8158 16.344 15.8578C15.3232 15.949 14.548 15.2026 13.5592 14.5731C12.012 13.5881 11.138 12.9749 9.63616 12.0138C7.90055 10.903 9.02567 10.2925 10.0148 9.29473C10.2736 9.03361 14.7715 5.06028 14.8586 4.69984C14.8695 4.65476 14.8796 4.48672 14.7768 4.398C14.674 4.30927 14.5223 4.33961 14.4128 4.36374C14.2577 4.39795 11.786 5.98456 6.99787 9.12358C6.2963 9.59146 5.66084 9.81942 5.09148 9.80747C4.46382 9.7943 3.25644 9.4628 2.35889 9.17945C1.25799 8.8319 0.383025 8.64815 0.459215 8.0579C0.498899 7.75047 0.934824 7.43605 1.76699 7.11466Z" fill="white"/>
</svg>
