<svg width="20" height="20" viewBox="0 0 20 20" fill="none" xmlns="http://www.w3.org/2000/svg">
<path d="M0.45459 20L1.79414 15.2535C0.624123 13.2636 0.21737 10.9169 0.649523 8.64988C1.08168 6.38284 2.32333 4.34972 4.14357 2.92861C5.96381 1.5075 8.23877 0.795107 10.5454 0.923909C12.852 1.05271 15.0333 2.01394 16.6836 3.62885C18.334 5.24376 19.3411 7.40245 19.5176 9.70347C19.6941 12.0045 19.0281 14.2913 17.6434 16.1385C16.2586 17.9858 14.2494 19.2678 11.9894 19.7462C9.72936 20.2246 7.3723 19.8669 5.35654 18.7394L0.45459 20ZM5.60407 17.0086L5.89528 17.188C7.55594 18.1979 9.53059 18.562 11.4428 18.2109C13.3549 17.8598 15.0709 16.818 16.2635 15.2842C17.4561 13.7503 18.0418 11.8316 17.9091 9.89402C17.7765 7.95639 16.9346 6.13531 15.544 4.77797C14.1534 3.42062 12.3115 2.62195 10.3692 2.53423C8.42699 2.44651 6.52037 3.07588 5.01286 4.30233C3.50534 5.52879 2.50239 7.26655 2.1952 9.18431C1.88801 11.1021 2.29809 13.0657 3.34723 14.7008L3.54623 15.0062L2.77454 17.7407L5.60407 17.0086Z" fill="white"/>
<path d="M7.33755 5.99448L6.72116 5.96054C6.52659 5.9485 6.33502 6.01287 6.18729 6.13993C5.73956 6.50709 5.41589 7.00308 5.26029 7.56047C5.04188 8.53012 5.38162 9.73734 6.26009 10.9543C7.56087 12.8444 9.47083 14.2322 11.6716 14.8862C12.0411 15.0076 12.4329 15.0457 12.8189 14.998C13.2049 14.9502 13.5756 14.8176 13.9042 14.6099C14.1254 14.4666 14.316 14.281 14.4651 14.0638C14.6142 13.8466 14.7188 13.6022 14.773 13.3445L14.87 12.8596C14.8855 12.7883 14.8762 12.7139 14.8435 12.6487C14.8109 12.5834 14.7569 12.5313 14.6905 12.5009L12.5986 11.5312C12.5325 11.5009 12.458 11.494 12.3875 11.5117C12.3169 11.5293 12.2544 11.5704 12.2104 11.6282L11.3902 12.6899C11.3602 12.7288 11.3188 12.7572 11.2717 12.7712C11.2246 12.7851 11.1744 12.7838 11.1281 12.7675C9.6424 12.2368 8.40387 11.1791 7.64816 9.79552C7.62556 9.75332 7.61624 9.70528 7.62144 9.6577C7.62664 9.61012 7.6461 9.56521 7.67728 9.52887L8.46353 8.62224C8.50287 8.57706 8.52874 8.52175 8.53818 8.46261C8.54762 8.40347 8.54025 8.34288 8.51692 8.28771L7.61418 6.21265C7.59075 6.15778 7.55244 6.11054 7.50355 6.07627C7.45467 6.042 7.39717 6.02207 7.33755 6.01872V5.99448Z" fill="white"/>
</svg>
